<mxfile host="app.diagrams.net" agent="Mozilla/5.0 (Windows NT 10.0; Win64; x64) AppleWebKit/537.36 (KHTML, like Gecko) Chrome/137.0.0.0 Safari/537.36 Edg/137.0.0.0" version="25.0.3">
  <diagram name="第 1 页" id="feJvg_iywJLqV21e2K2X">
    <mxGraphModel dx="1794" dy="853" grid="1" gridSize="10" guides="1" tooltips="1" connect="1" arrows="1" fold="1" page="1" pageScale="1" pageWidth="827" pageHeight="1169" math="0" shadow="0">
      <root>
        <mxCell id="0" />
        <mxCell id="1" parent="0" />
        <mxCell id="ZrcRCkvmEoTp-0TvFuuc-5" value="" style="edgeStyle=orthogonalEdgeStyle;rounded=0;orthogonalLoop=1;jettySize=auto;html=1;" edge="1" parent="1" source="ZrcRCkvmEoTp-0TvFuuc-1" target="ZrcRCkvmEoTp-0TvFuuc-3">
          <mxGeometry relative="1" as="geometry" />
        </mxCell>
        <mxCell id="ZrcRCkvmEoTp-0TvFuuc-1" value="2M(512个页面)" style="rounded=0;whiteSpace=wrap;html=1;" vertex="1" parent="1">
          <mxGeometry x="160" y="60" width="640" height="40" as="geometry" />
        </mxCell>
        <mxCell id="ZrcRCkvmEoTp-0TvFuuc-99" style="edgeStyle=orthogonalEdgeStyle;rounded=0;orthogonalLoop=1;jettySize=auto;html=1;exitX=0.5;exitY=1;exitDx=0;exitDy=0;" edge="1" parent="1" source="ZrcRCkvmEoTp-0TvFuuc-3" target="ZrcRCkvmEoTp-0TvFuuc-10">
          <mxGeometry relative="1" as="geometry" />
        </mxCell>
        <mxCell id="ZrcRCkvmEoTp-0TvFuuc-3" value="" style="rounded=0;whiteSpace=wrap;html=1;" vertex="1" parent="1">
          <mxGeometry x="160" y="180" width="640" height="40" as="geometry" />
        </mxCell>
        <mxCell id="ZrcRCkvmEoTp-0TvFuuc-6" value="" style="endArrow=none;html=1;rounded=0;entryX=0.031;entryY=0;entryDx=0;entryDy=0;entryPerimeter=0;exitX=0.031;exitY=1.01;exitDx=0;exitDy=0;exitPerimeter=0;elbow=vertical;" edge="1" parent="1" source="ZrcRCkvmEoTp-0TvFuuc-3" target="ZrcRCkvmEoTp-0TvFuuc-3">
          <mxGeometry width="50" height="50" relative="1" as="geometry">
            <mxPoint x="140" y="230" as="sourcePoint" />
            <mxPoint x="190" y="180" as="targetPoint" />
          </mxGeometry>
        </mxCell>
        <mxCell id="ZrcRCkvmEoTp-0TvFuuc-9" value="A" style="text;html=1;align=center;verticalAlign=middle;whiteSpace=wrap;rounded=0;" vertex="1" parent="1">
          <mxGeometry x="140" y="185" width="60" height="30" as="geometry" />
        </mxCell>
        <mxCell id="ZrcRCkvmEoTp-0TvFuuc-100" style="edgeStyle=orthogonalEdgeStyle;rounded=0;orthogonalLoop=1;jettySize=auto;html=1;exitX=0.5;exitY=1;exitDx=0;exitDy=0;" edge="1" parent="1" source="ZrcRCkvmEoTp-0TvFuuc-10" target="ZrcRCkvmEoTp-0TvFuuc-17">
          <mxGeometry relative="1" as="geometry" />
        </mxCell>
        <mxCell id="ZrcRCkvmEoTp-0TvFuuc-10" value="" style="rounded=0;whiteSpace=wrap;html=1;" vertex="1" parent="1">
          <mxGeometry x="160" y="310" width="640" height="40" as="geometry" />
        </mxCell>
        <mxCell id="ZrcRCkvmEoTp-0TvFuuc-11" value="" style="endArrow=none;html=1;rounded=0;entryX=0.031;entryY=0;entryDx=0;entryDy=0;entryPerimeter=0;exitX=0.031;exitY=1.01;exitDx=0;exitDy=0;exitPerimeter=0;elbow=vertical;" edge="1" parent="1" source="ZrcRCkvmEoTp-0TvFuuc-10" target="ZrcRCkvmEoTp-0TvFuuc-10">
          <mxGeometry width="50" height="50" relative="1" as="geometry">
            <mxPoint x="140" y="360" as="sourcePoint" />
            <mxPoint x="190" y="310" as="targetPoint" />
          </mxGeometry>
        </mxCell>
        <mxCell id="ZrcRCkvmEoTp-0TvFuuc-12" value="A" style="text;html=1;align=center;verticalAlign=middle;whiteSpace=wrap;rounded=0;" vertex="1" parent="1">
          <mxGeometry x="140" y="315" width="60" height="30" as="geometry" />
        </mxCell>
        <mxCell id="ZrcRCkvmEoTp-0TvFuuc-14" value="" style="endArrow=none;html=1;rounded=0;entryX=0.031;entryY=0;entryDx=0;entryDy=0;entryPerimeter=0;exitX=0.031;exitY=1.01;exitDx=0;exitDy=0;exitPerimeter=0;elbow=vertical;" edge="1" parent="1">
          <mxGeometry width="50" height="50" relative="1" as="geometry">
            <mxPoint x="240" y="350" as="sourcePoint" />
            <mxPoint x="240" y="310" as="targetPoint" />
          </mxGeometry>
        </mxCell>
        <mxCell id="ZrcRCkvmEoTp-0TvFuuc-15" value="" style="endArrow=none;html=1;rounded=0;entryX=0.031;entryY=0;entryDx=0;entryDy=0;entryPerimeter=0;exitX=0.031;exitY=1.01;exitDx=0;exitDy=0;exitPerimeter=0;elbow=vertical;" edge="1" parent="1">
          <mxGeometry width="50" height="50" relative="1" as="geometry">
            <mxPoint x="320" y="350" as="sourcePoint" />
            <mxPoint x="320" y="310" as="targetPoint" />
          </mxGeometry>
        </mxCell>
        <mxCell id="ZrcRCkvmEoTp-0TvFuuc-16" value="B" style="text;html=1;align=center;verticalAlign=middle;resizable=0;points=[];autosize=1;strokeColor=none;fillColor=none;" vertex="1" parent="1">
          <mxGeometry x="265" y="315" width="30" height="30" as="geometry" />
        </mxCell>
        <mxCell id="ZrcRCkvmEoTp-0TvFuuc-101" style="edgeStyle=orthogonalEdgeStyle;rounded=0;orthogonalLoop=1;jettySize=auto;html=1;exitX=0.5;exitY=1;exitDx=0;exitDy=0;entryX=0.5;entryY=0;entryDx=0;entryDy=0;" edge="1" parent="1" source="ZrcRCkvmEoTp-0TvFuuc-17" target="ZrcRCkvmEoTp-0TvFuuc-34">
          <mxGeometry relative="1" as="geometry" />
        </mxCell>
        <mxCell id="ZrcRCkvmEoTp-0TvFuuc-17" value="" style="rounded=0;whiteSpace=wrap;html=1;" vertex="1" parent="1">
          <mxGeometry x="160" y="440" width="640" height="40" as="geometry" />
        </mxCell>
        <mxCell id="ZrcRCkvmEoTp-0TvFuuc-18" value="" style="endArrow=none;html=1;rounded=0;entryX=0.031;entryY=0;entryDx=0;entryDy=0;entryPerimeter=0;exitX=0.031;exitY=1.01;exitDx=0;exitDy=0;exitPerimeter=0;elbow=vertical;" edge="1" parent="1" source="ZrcRCkvmEoTp-0TvFuuc-17" target="ZrcRCkvmEoTp-0TvFuuc-17">
          <mxGeometry width="50" height="50" relative="1" as="geometry">
            <mxPoint x="140" y="490" as="sourcePoint" />
            <mxPoint x="190" y="440" as="targetPoint" />
          </mxGeometry>
        </mxCell>
        <mxCell id="ZrcRCkvmEoTp-0TvFuuc-19" value="A" style="text;html=1;align=center;verticalAlign=middle;whiteSpace=wrap;rounded=0;" vertex="1" parent="1">
          <mxGeometry x="140" y="445" width="60" height="30" as="geometry" />
        </mxCell>
        <mxCell id="ZrcRCkvmEoTp-0TvFuuc-20" value="" style="endArrow=none;html=1;rounded=0;entryX=0.031;entryY=0;entryDx=0;entryDy=0;entryPerimeter=0;exitX=0.031;exitY=1.01;exitDx=0;exitDy=0;exitPerimeter=0;elbow=vertical;" edge="1" parent="1">
          <mxGeometry width="50" height="50" relative="1" as="geometry">
            <mxPoint x="240" y="480" as="sourcePoint" />
            <mxPoint x="240" y="440" as="targetPoint" />
          </mxGeometry>
        </mxCell>
        <mxCell id="ZrcRCkvmEoTp-0TvFuuc-21" value="" style="endArrow=none;html=1;rounded=0;entryX=0.031;entryY=0;entryDx=0;entryDy=0;entryPerimeter=0;exitX=0.031;exitY=1.01;exitDx=0;exitDy=0;exitPerimeter=0;elbow=vertical;" edge="1" parent="1">
          <mxGeometry width="50" height="50" relative="1" as="geometry">
            <mxPoint x="320" y="480" as="sourcePoint" />
            <mxPoint x="320" y="440" as="targetPoint" />
          </mxGeometry>
        </mxCell>
        <mxCell id="ZrcRCkvmEoTp-0TvFuuc-22" value="B" style="text;html=1;align=center;verticalAlign=middle;resizable=0;points=[];autosize=1;strokeColor=none;fillColor=none;" vertex="1" parent="1">
          <mxGeometry x="265" y="445" width="30" height="30" as="geometry" />
        </mxCell>
        <mxCell id="ZrcRCkvmEoTp-0TvFuuc-23" value="" style="endArrow=none;html=1;rounded=0;entryX=0.031;entryY=0;entryDx=0;entryDy=0;entryPerimeter=0;exitX=0.031;exitY=1.01;exitDx=0;exitDy=0;exitPerimeter=0;elbow=vertical;" edge="1" parent="1">
          <mxGeometry width="50" height="50" relative="1" as="geometry">
            <mxPoint x="200" y="480" as="sourcePoint" />
            <mxPoint x="200" y="440" as="targetPoint" />
          </mxGeometry>
        </mxCell>
        <mxCell id="ZrcRCkvmEoTp-0TvFuuc-26" value="C" style="text;html=1;align=center;verticalAlign=middle;resizable=0;points=[];autosize=1;strokeColor=none;fillColor=none;" vertex="1" parent="1">
          <mxGeometry x="200" y="445" width="30" height="30" as="geometry" />
        </mxCell>
        <mxCell id="ZrcRCkvmEoTp-0TvFuuc-32" value="" style="endArrow=none;html=1;rounded=0;entryX=0.031;entryY=0;entryDx=0;entryDy=0;entryPerimeter=0;exitX=0.031;exitY=1.01;exitDx=0;exitDy=0;exitPerimeter=0;elbow=vertical;" edge="1" parent="1">
          <mxGeometry width="50" height="50" relative="1" as="geometry">
            <mxPoint x="360" y="480" as="sourcePoint" />
            <mxPoint x="360" y="440" as="targetPoint" />
          </mxGeometry>
        </mxCell>
        <mxCell id="ZrcRCkvmEoTp-0TvFuuc-33" value="D" style="text;html=1;align=center;verticalAlign=middle;resizable=0;points=[];autosize=1;strokeColor=none;fillColor=none;" vertex="1" parent="1">
          <mxGeometry x="325" y="445" width="30" height="30" as="geometry" />
        </mxCell>
        <mxCell id="ZrcRCkvmEoTp-0TvFuuc-102" style="edgeStyle=orthogonalEdgeStyle;rounded=0;orthogonalLoop=1;jettySize=auto;html=1;exitX=0.5;exitY=1;exitDx=0;exitDy=0;" edge="1" parent="1" source="ZrcRCkvmEoTp-0TvFuuc-34">
          <mxGeometry relative="1" as="geometry">
            <mxPoint x="480" y="670" as="targetPoint" />
          </mxGeometry>
        </mxCell>
        <mxCell id="ZrcRCkvmEoTp-0TvFuuc-34" value="" style="rounded=0;whiteSpace=wrap;html=1;" vertex="1" parent="1">
          <mxGeometry x="160" y="560" width="640" height="40" as="geometry" />
        </mxCell>
        <mxCell id="ZrcRCkvmEoTp-0TvFuuc-35" value="" style="endArrow=none;html=1;rounded=0;entryX=0.031;entryY=0;entryDx=0;entryDy=0;entryPerimeter=0;exitX=0.031;exitY=1.01;exitDx=0;exitDy=0;exitPerimeter=0;elbow=vertical;" edge="1" parent="1" source="ZrcRCkvmEoTp-0TvFuuc-34" target="ZrcRCkvmEoTp-0TvFuuc-34">
          <mxGeometry width="50" height="50" relative="1" as="geometry">
            <mxPoint x="140" y="610" as="sourcePoint" />
            <mxPoint x="190" y="560" as="targetPoint" />
          </mxGeometry>
        </mxCell>
        <mxCell id="ZrcRCkvmEoTp-0TvFuuc-36" value="A" style="text;html=1;align=center;verticalAlign=middle;whiteSpace=wrap;rounded=0;" vertex="1" parent="1">
          <mxGeometry x="140" y="565" width="60" height="30" as="geometry" />
        </mxCell>
        <mxCell id="ZrcRCkvmEoTp-0TvFuuc-37" value="" style="endArrow=none;html=1;rounded=0;entryX=0.031;entryY=0;entryDx=0;entryDy=0;entryPerimeter=0;exitX=0.031;exitY=1.01;exitDx=0;exitDy=0;exitPerimeter=0;elbow=vertical;" edge="1" parent="1">
          <mxGeometry width="50" height="50" relative="1" as="geometry">
            <mxPoint x="240" y="600" as="sourcePoint" />
            <mxPoint x="240" y="560" as="targetPoint" />
          </mxGeometry>
        </mxCell>
        <mxCell id="ZrcRCkvmEoTp-0TvFuuc-38" value="" style="endArrow=none;html=1;rounded=0;entryX=0.031;entryY=0;entryDx=0;entryDy=0;entryPerimeter=0;exitX=0.031;exitY=1.01;exitDx=0;exitDy=0;exitPerimeter=0;elbow=vertical;" edge="1" parent="1">
          <mxGeometry width="50" height="50" relative="1" as="geometry">
            <mxPoint x="320" y="600" as="sourcePoint" />
            <mxPoint x="320" y="560" as="targetPoint" />
          </mxGeometry>
        </mxCell>
        <mxCell id="ZrcRCkvmEoTp-0TvFuuc-39" value="B" style="text;html=1;align=center;verticalAlign=middle;resizable=0;points=[];autosize=1;strokeColor=none;fillColor=none;" vertex="1" parent="1">
          <mxGeometry x="265" y="565" width="30" height="30" as="geometry" />
        </mxCell>
        <mxCell id="ZrcRCkvmEoTp-0TvFuuc-42" value="" style="endArrow=none;html=1;rounded=0;entryX=0.031;entryY=0;entryDx=0;entryDy=0;entryPerimeter=0;exitX=0.031;exitY=1.01;exitDx=0;exitDy=0;exitPerimeter=0;elbow=vertical;" edge="1" parent="1">
          <mxGeometry width="50" height="50" relative="1" as="geometry">
            <mxPoint x="360" y="600" as="sourcePoint" />
            <mxPoint x="360" y="560" as="targetPoint" />
          </mxGeometry>
        </mxCell>
        <mxCell id="ZrcRCkvmEoTp-0TvFuuc-43" value="D" style="text;html=1;align=center;verticalAlign=middle;resizable=0;points=[];autosize=1;strokeColor=none;fillColor=none;" vertex="1" parent="1">
          <mxGeometry x="325" y="565" width="30" height="30" as="geometry" />
        </mxCell>
        <mxCell id="ZrcRCkvmEoTp-0TvFuuc-103" style="edgeStyle=orthogonalEdgeStyle;rounded=0;orthogonalLoop=1;jettySize=auto;html=1;exitX=0.5;exitY=1;exitDx=0;exitDy=0;" edge="1" parent="1" source="ZrcRCkvmEoTp-0TvFuuc-44">
          <mxGeometry relative="1" as="geometry">
            <mxPoint x="480" y="800" as="targetPoint" />
          </mxGeometry>
        </mxCell>
        <mxCell id="ZrcRCkvmEoTp-0TvFuuc-44" value="" style="rounded=0;whiteSpace=wrap;html=1;" vertex="1" parent="1">
          <mxGeometry x="160" y="670" width="640" height="40" as="geometry" />
        </mxCell>
        <mxCell id="ZrcRCkvmEoTp-0TvFuuc-45" value="" style="endArrow=none;html=1;rounded=0;entryX=0.031;entryY=0;entryDx=0;entryDy=0;entryPerimeter=0;exitX=0.031;exitY=1.01;exitDx=0;exitDy=0;exitPerimeter=0;elbow=vertical;" edge="1" parent="1" source="ZrcRCkvmEoTp-0TvFuuc-44" target="ZrcRCkvmEoTp-0TvFuuc-44">
          <mxGeometry width="50" height="50" relative="1" as="geometry">
            <mxPoint x="140" y="720" as="sourcePoint" />
            <mxPoint x="190" y="670" as="targetPoint" />
          </mxGeometry>
        </mxCell>
        <mxCell id="ZrcRCkvmEoTp-0TvFuuc-46" value="A" style="text;html=1;align=center;verticalAlign=middle;whiteSpace=wrap;rounded=0;" vertex="1" parent="1">
          <mxGeometry x="140" y="675" width="60" height="30" as="geometry" />
        </mxCell>
        <mxCell id="ZrcRCkvmEoTp-0TvFuuc-47" value="" style="endArrow=none;html=1;rounded=0;entryX=0.031;entryY=0;entryDx=0;entryDy=0;entryPerimeter=0;exitX=0.031;exitY=1.01;exitDx=0;exitDy=0;exitPerimeter=0;elbow=vertical;" edge="1" parent="1">
          <mxGeometry width="50" height="50" relative="1" as="geometry">
            <mxPoint x="240" y="710" as="sourcePoint" />
            <mxPoint x="240" y="670" as="targetPoint" />
          </mxGeometry>
        </mxCell>
        <mxCell id="ZrcRCkvmEoTp-0TvFuuc-48" value="" style="endArrow=none;html=1;rounded=0;entryX=0.031;entryY=0;entryDx=0;entryDy=0;entryPerimeter=0;exitX=0.031;exitY=1.01;exitDx=0;exitDy=0;exitPerimeter=0;elbow=vertical;" edge="1" parent="1">
          <mxGeometry width="50" height="50" relative="1" as="geometry">
            <mxPoint x="320" y="710" as="sourcePoint" />
            <mxPoint x="320" y="670" as="targetPoint" />
          </mxGeometry>
        </mxCell>
        <mxCell id="ZrcRCkvmEoTp-0TvFuuc-49" value="B" style="text;html=1;align=center;verticalAlign=middle;resizable=0;points=[];autosize=1;strokeColor=none;fillColor=none;" vertex="1" parent="1">
          <mxGeometry x="265" y="675" width="30" height="30" as="geometry" />
        </mxCell>
        <mxCell id="ZrcRCkvmEoTp-0TvFuuc-50" value="" style="endArrow=none;html=1;rounded=0;entryX=0.031;entryY=0;entryDx=0;entryDy=0;entryPerimeter=0;exitX=0.031;exitY=1.01;exitDx=0;exitDy=0;exitPerimeter=0;elbow=vertical;" edge="1" parent="1">
          <mxGeometry width="50" height="50" relative="1" as="geometry">
            <mxPoint x="360" y="710" as="sourcePoint" />
            <mxPoint x="360" y="670" as="targetPoint" />
          </mxGeometry>
        </mxCell>
        <mxCell id="ZrcRCkvmEoTp-0TvFuuc-51" value="D" style="text;html=1;align=center;verticalAlign=middle;resizable=0;points=[];autosize=1;strokeColor=none;fillColor=none;" vertex="1" parent="1">
          <mxGeometry x="325" y="675" width="30" height="30" as="geometry" />
        </mxCell>
        <mxCell id="ZrcRCkvmEoTp-0TvFuuc-52" value="" style="endArrow=none;html=1;rounded=0;entryX=0.031;entryY=0;entryDx=0;entryDy=0;entryPerimeter=0;exitX=0.031;exitY=1.01;exitDx=0;exitDy=0;exitPerimeter=0;elbow=vertical;" edge="1" parent="1">
          <mxGeometry width="50" height="50" relative="1" as="geometry">
            <mxPoint x="400" y="710" as="sourcePoint" />
            <mxPoint x="400" y="670" as="targetPoint" />
          </mxGeometry>
        </mxCell>
        <mxCell id="ZrcRCkvmEoTp-0TvFuuc-53" value="" style="endArrow=none;html=1;rounded=0;entryX=0.031;entryY=0;entryDx=0;entryDy=0;entryPerimeter=0;exitX=0.031;exitY=1.01;exitDx=0;exitDy=0;exitPerimeter=0;elbow=vertical;" edge="1" parent="1">
          <mxGeometry width="50" height="50" relative="1" as="geometry">
            <mxPoint x="479.5" y="710" as="sourcePoint" />
            <mxPoint x="479.5" y="670" as="targetPoint" />
          </mxGeometry>
        </mxCell>
        <mxCell id="ZrcRCkvmEoTp-0TvFuuc-54" value="E" style="text;html=1;align=center;verticalAlign=middle;resizable=0;points=[];autosize=1;strokeColor=none;fillColor=none;" vertex="1" parent="1">
          <mxGeometry x="425" y="675" width="30" height="30" as="geometry" />
        </mxCell>
        <mxCell id="ZrcRCkvmEoTp-0TvFuuc-55" value="" style="rounded=0;whiteSpace=wrap;html=1;" vertex="1" parent="1">
          <mxGeometry x="160" y="800" width="640" height="40" as="geometry" />
        </mxCell>
        <mxCell id="ZrcRCkvmEoTp-0TvFuuc-58" value="" style="endArrow=none;html=1;rounded=0;entryX=0.031;entryY=0;entryDx=0;entryDy=0;entryPerimeter=0;exitX=0.031;exitY=1.01;exitDx=0;exitDy=0;exitPerimeter=0;elbow=vertical;" edge="1" parent="1">
          <mxGeometry width="50" height="50" relative="1" as="geometry">
            <mxPoint x="240" y="840" as="sourcePoint" />
            <mxPoint x="240" y="800" as="targetPoint" />
          </mxGeometry>
        </mxCell>
        <mxCell id="ZrcRCkvmEoTp-0TvFuuc-59" value="" style="endArrow=none;html=1;rounded=0;entryX=0.031;entryY=0;entryDx=0;entryDy=0;entryPerimeter=0;exitX=0.031;exitY=1.01;exitDx=0;exitDy=0;exitPerimeter=0;elbow=vertical;" edge="1" parent="1">
          <mxGeometry width="50" height="50" relative="1" as="geometry">
            <mxPoint x="320" y="840" as="sourcePoint" />
            <mxPoint x="320" y="800" as="targetPoint" />
          </mxGeometry>
        </mxCell>
        <mxCell id="ZrcRCkvmEoTp-0TvFuuc-60" value="B" style="text;html=1;align=center;verticalAlign=middle;resizable=0;points=[];autosize=1;strokeColor=none;fillColor=none;" vertex="1" parent="1">
          <mxGeometry x="265" y="805" width="30" height="30" as="geometry" />
        </mxCell>
        <mxCell id="ZrcRCkvmEoTp-0TvFuuc-61" value="" style="endArrow=none;html=1;rounded=0;entryX=0.031;entryY=0;entryDx=0;entryDy=0;entryPerimeter=0;exitX=0.031;exitY=1.01;exitDx=0;exitDy=0;exitPerimeter=0;elbow=vertical;" edge="1" parent="1">
          <mxGeometry width="50" height="50" relative="1" as="geometry">
            <mxPoint x="360" y="840" as="sourcePoint" />
            <mxPoint x="360" y="800" as="targetPoint" />
          </mxGeometry>
        </mxCell>
        <mxCell id="ZrcRCkvmEoTp-0TvFuuc-62" value="D" style="text;html=1;align=center;verticalAlign=middle;resizable=0;points=[];autosize=1;strokeColor=none;fillColor=none;" vertex="1" parent="1">
          <mxGeometry x="325" y="805" width="30" height="30" as="geometry" />
        </mxCell>
        <mxCell id="ZrcRCkvmEoTp-0TvFuuc-63" value="" style="endArrow=none;html=1;rounded=0;entryX=0.031;entryY=0;entryDx=0;entryDy=0;entryPerimeter=0;exitX=0.031;exitY=1.01;exitDx=0;exitDy=0;exitPerimeter=0;elbow=vertical;" edge="1" parent="1">
          <mxGeometry width="50" height="50" relative="1" as="geometry">
            <mxPoint x="400" y="840" as="sourcePoint" />
            <mxPoint x="400" y="800" as="targetPoint" />
          </mxGeometry>
        </mxCell>
        <mxCell id="ZrcRCkvmEoTp-0TvFuuc-64" value="" style="endArrow=none;html=1;rounded=0;entryX=0.031;entryY=0;entryDx=0;entryDy=0;entryPerimeter=0;exitX=0.031;exitY=1.01;exitDx=0;exitDy=0;exitPerimeter=0;elbow=vertical;" edge="1" parent="1">
          <mxGeometry width="50" height="50" relative="1" as="geometry">
            <mxPoint x="479.5" y="840" as="sourcePoint" />
            <mxPoint x="479.5" y="800" as="targetPoint" />
          </mxGeometry>
        </mxCell>
        <mxCell id="ZrcRCkvmEoTp-0TvFuuc-65" value="E" style="text;html=1;align=center;verticalAlign=middle;resizable=0;points=[];autosize=1;strokeColor=none;fillColor=none;" vertex="1" parent="1">
          <mxGeometry x="425" y="805" width="30" height="30" as="geometry" />
        </mxCell>
        <mxCell id="ZrcRCkvmEoTp-0TvFuuc-105" style="edgeStyle=orthogonalEdgeStyle;rounded=0;orthogonalLoop=1;jettySize=auto;html=1;exitX=0.5;exitY=1;exitDx=0;exitDy=0;entryX=0.5;entryY=0;entryDx=0;entryDy=0;" edge="1" parent="1" source="ZrcRCkvmEoTp-0TvFuuc-66" target="ZrcRCkvmEoTp-0TvFuuc-77">
          <mxGeometry relative="1" as="geometry" />
        </mxCell>
        <mxCell id="ZrcRCkvmEoTp-0TvFuuc-66" value="" style="rounded=0;whiteSpace=wrap;html=1;" vertex="1" parent="1">
          <mxGeometry x="160" y="910" width="640" height="40" as="geometry" />
        </mxCell>
        <mxCell id="ZrcRCkvmEoTp-0TvFuuc-67" value="" style="endArrow=none;html=1;rounded=0;entryX=0.031;entryY=0;entryDx=0;entryDy=0;entryPerimeter=0;exitX=0.031;exitY=1.01;exitDx=0;exitDy=0;exitPerimeter=0;elbow=vertical;" edge="1" parent="1">
          <mxGeometry width="50" height="50" relative="1" as="geometry">
            <mxPoint x="240" y="950" as="sourcePoint" />
            <mxPoint x="240" y="910" as="targetPoint" />
          </mxGeometry>
        </mxCell>
        <mxCell id="ZrcRCkvmEoTp-0TvFuuc-68" value="" style="endArrow=none;html=1;rounded=0;entryX=0.031;entryY=0;entryDx=0;entryDy=0;entryPerimeter=0;exitX=0.031;exitY=1.01;exitDx=0;exitDy=0;exitPerimeter=0;elbow=vertical;" edge="1" parent="1">
          <mxGeometry width="50" height="50" relative="1" as="geometry">
            <mxPoint x="320" y="950" as="sourcePoint" />
            <mxPoint x="320" y="910" as="targetPoint" />
          </mxGeometry>
        </mxCell>
        <mxCell id="ZrcRCkvmEoTp-0TvFuuc-69" value="B" style="text;html=1;align=center;verticalAlign=middle;resizable=0;points=[];autosize=1;strokeColor=none;fillColor=none;" vertex="1" parent="1">
          <mxGeometry x="265" y="915" width="30" height="30" as="geometry" />
        </mxCell>
        <mxCell id="ZrcRCkvmEoTp-0TvFuuc-70" value="" style="endArrow=none;html=1;rounded=0;entryX=0.031;entryY=0;entryDx=0;entryDy=0;entryPerimeter=0;exitX=0.031;exitY=1.01;exitDx=0;exitDy=0;exitPerimeter=0;elbow=vertical;" edge="1" parent="1">
          <mxGeometry width="50" height="50" relative="1" as="geometry">
            <mxPoint x="360" y="950" as="sourcePoint" />
            <mxPoint x="360" y="910" as="targetPoint" />
          </mxGeometry>
        </mxCell>
        <mxCell id="ZrcRCkvmEoTp-0TvFuuc-71" value="D" style="text;html=1;align=center;verticalAlign=middle;resizable=0;points=[];autosize=1;strokeColor=none;fillColor=none;" vertex="1" parent="1">
          <mxGeometry x="325" y="915" width="30" height="30" as="geometry" />
        </mxCell>
        <mxCell id="ZrcRCkvmEoTp-0TvFuuc-72" value="" style="endArrow=none;html=1;rounded=0;entryX=0.031;entryY=0;entryDx=0;entryDy=0;entryPerimeter=0;exitX=0.031;exitY=1.01;exitDx=0;exitDy=0;exitPerimeter=0;elbow=vertical;" edge="1" parent="1">
          <mxGeometry width="50" height="50" relative="1" as="geometry">
            <mxPoint x="400" y="950" as="sourcePoint" />
            <mxPoint x="400" y="910" as="targetPoint" />
          </mxGeometry>
        </mxCell>
        <mxCell id="ZrcRCkvmEoTp-0TvFuuc-73" value="" style="endArrow=none;html=1;rounded=0;entryX=0.031;entryY=0;entryDx=0;entryDy=0;entryPerimeter=0;exitX=0.031;exitY=1.01;exitDx=0;exitDy=0;exitPerimeter=0;elbow=vertical;" edge="1" parent="1">
          <mxGeometry width="50" height="50" relative="1" as="geometry">
            <mxPoint x="479.5" y="950" as="sourcePoint" />
            <mxPoint x="479.5" y="910" as="targetPoint" />
          </mxGeometry>
        </mxCell>
        <mxCell id="ZrcRCkvmEoTp-0TvFuuc-74" value="E" style="text;html=1;align=center;verticalAlign=middle;resizable=0;points=[];autosize=1;strokeColor=none;fillColor=none;" vertex="1" parent="1">
          <mxGeometry x="425" y="915" width="30" height="30" as="geometry" />
        </mxCell>
        <mxCell id="ZrcRCkvmEoTp-0TvFuuc-76" value="F" style="text;html=1;align=center;verticalAlign=middle;resizable=0;points=[];autosize=1;strokeColor=none;fillColor=none;" vertex="1" parent="1">
          <mxGeometry x="365" y="915" width="30" height="30" as="geometry" />
        </mxCell>
        <mxCell id="ZrcRCkvmEoTp-0TvFuuc-106" style="edgeStyle=orthogonalEdgeStyle;rounded=0;orthogonalLoop=1;jettySize=auto;html=1;exitX=0.5;exitY=1;exitDx=0;exitDy=0;entryX=0.5;entryY=0;entryDx=0;entryDy=0;" edge="1" parent="1" source="ZrcRCkvmEoTp-0TvFuuc-77" target="ZrcRCkvmEoTp-0TvFuuc-88">
          <mxGeometry relative="1" as="geometry" />
        </mxCell>
        <mxCell id="ZrcRCkvmEoTp-0TvFuuc-77" value="" style="rounded=0;whiteSpace=wrap;html=1;" vertex="1" parent="1">
          <mxGeometry x="160" y="1020" width="640" height="40" as="geometry" />
        </mxCell>
        <mxCell id="ZrcRCkvmEoTp-0TvFuuc-78" value="" style="endArrow=none;html=1;rounded=0;entryX=0.031;entryY=0;entryDx=0;entryDy=0;entryPerimeter=0;exitX=0.031;exitY=1.01;exitDx=0;exitDy=0;exitPerimeter=0;elbow=vertical;" edge="1" parent="1">
          <mxGeometry width="50" height="50" relative="1" as="geometry">
            <mxPoint x="240" y="1060" as="sourcePoint" />
            <mxPoint x="240" y="1020" as="targetPoint" />
          </mxGeometry>
        </mxCell>
        <mxCell id="ZrcRCkvmEoTp-0TvFuuc-79" value="" style="endArrow=none;html=1;rounded=0;entryX=0.031;entryY=0;entryDx=0;entryDy=0;entryPerimeter=0;exitX=0.031;exitY=1.01;exitDx=0;exitDy=0;exitPerimeter=0;elbow=vertical;" edge="1" parent="1">
          <mxGeometry width="50" height="50" relative="1" as="geometry">
            <mxPoint x="320" y="1060" as="sourcePoint" />
            <mxPoint x="320" y="1020" as="targetPoint" />
          </mxGeometry>
        </mxCell>
        <mxCell id="ZrcRCkvmEoTp-0TvFuuc-80" value="B" style="text;html=1;align=center;verticalAlign=middle;resizable=0;points=[];autosize=1;strokeColor=none;fillColor=none;" vertex="1" parent="1">
          <mxGeometry x="265" y="1025" width="30" height="30" as="geometry" />
        </mxCell>
        <mxCell id="ZrcRCkvmEoTp-0TvFuuc-81" value="" style="endArrow=none;html=1;rounded=0;entryX=0.031;entryY=0;entryDx=0;entryDy=0;entryPerimeter=0;exitX=0.031;exitY=1.01;exitDx=0;exitDy=0;exitPerimeter=0;elbow=vertical;" edge="1" parent="1">
          <mxGeometry width="50" height="50" relative="1" as="geometry">
            <mxPoint x="360" y="1060" as="sourcePoint" />
            <mxPoint x="360" y="1020" as="targetPoint" />
          </mxGeometry>
        </mxCell>
        <mxCell id="ZrcRCkvmEoTp-0TvFuuc-82" value="D" style="text;html=1;align=center;verticalAlign=middle;resizable=0;points=[];autosize=1;strokeColor=none;fillColor=none;" vertex="1" parent="1">
          <mxGeometry x="325" y="1025" width="30" height="30" as="geometry" />
        </mxCell>
        <mxCell id="ZrcRCkvmEoTp-0TvFuuc-83" value="" style="endArrow=none;html=1;rounded=0;entryX=0.031;entryY=0;entryDx=0;entryDy=0;entryPerimeter=0;exitX=0.031;exitY=1.01;exitDx=0;exitDy=0;exitPerimeter=0;elbow=vertical;" edge="1" parent="1">
          <mxGeometry width="50" height="50" relative="1" as="geometry">
            <mxPoint x="400" y="1060" as="sourcePoint" />
            <mxPoint x="400" y="1020" as="targetPoint" />
          </mxGeometry>
        </mxCell>
        <mxCell id="ZrcRCkvmEoTp-0TvFuuc-84" value="" style="endArrow=none;html=1;rounded=0;entryX=0.031;entryY=0;entryDx=0;entryDy=0;entryPerimeter=0;exitX=0.031;exitY=1.01;exitDx=0;exitDy=0;exitPerimeter=0;elbow=vertical;" edge="1" parent="1">
          <mxGeometry width="50" height="50" relative="1" as="geometry">
            <mxPoint x="479.5" y="1060" as="sourcePoint" />
            <mxPoint x="479.5" y="1020" as="targetPoint" />
          </mxGeometry>
        </mxCell>
        <mxCell id="ZrcRCkvmEoTp-0TvFuuc-85" value="E" style="text;html=1;align=center;verticalAlign=middle;resizable=0;points=[];autosize=1;strokeColor=none;fillColor=none;" vertex="1" parent="1">
          <mxGeometry x="425" y="1025" width="30" height="30" as="geometry" />
        </mxCell>
        <mxCell id="ZrcRCkvmEoTp-0TvFuuc-86" value="F" style="text;html=1;align=center;verticalAlign=middle;resizable=0;points=[];autosize=1;strokeColor=none;fillColor=none;" vertex="1" parent="1">
          <mxGeometry x="365" y="1025" width="30" height="30" as="geometry" />
        </mxCell>
        <mxCell id="ZrcRCkvmEoTp-0TvFuuc-87" value="G" style="text;html=1;align=center;verticalAlign=middle;resizable=0;points=[];autosize=1;strokeColor=none;fillColor=none;" vertex="1" parent="1">
          <mxGeometry x="185" y="1025" width="30" height="30" as="geometry" />
        </mxCell>
        <mxCell id="ZrcRCkvmEoTp-0TvFuuc-88" value="" style="rounded=0;whiteSpace=wrap;html=1;" vertex="1" parent="1">
          <mxGeometry x="160" y="1110" width="640" height="40" as="geometry" />
        </mxCell>
        <mxCell id="ZrcRCkvmEoTp-0TvFuuc-89" value="" style="endArrow=none;html=1;rounded=0;entryX=0.031;entryY=0;entryDx=0;entryDy=0;entryPerimeter=0;exitX=0.031;exitY=1.01;exitDx=0;exitDy=0;exitPerimeter=0;elbow=vertical;" edge="1" parent="1">
          <mxGeometry width="50" height="50" relative="1" as="geometry">
            <mxPoint x="240" y="1150" as="sourcePoint" />
            <mxPoint x="240" y="1110" as="targetPoint" />
          </mxGeometry>
        </mxCell>
        <mxCell id="ZrcRCkvmEoTp-0TvFuuc-90" value="" style="endArrow=none;html=1;rounded=0;entryX=0.031;entryY=0;entryDx=0;entryDy=0;entryPerimeter=0;exitX=0.031;exitY=1.01;exitDx=0;exitDy=0;exitPerimeter=0;elbow=vertical;" edge="1" parent="1">
          <mxGeometry width="50" height="50" relative="1" as="geometry">
            <mxPoint x="320" y="1150" as="sourcePoint" />
            <mxPoint x="320" y="1110" as="targetPoint" />
          </mxGeometry>
        </mxCell>
        <mxCell id="ZrcRCkvmEoTp-0TvFuuc-92" value="" style="endArrow=none;html=1;rounded=0;entryX=0.031;entryY=0;entryDx=0;entryDy=0;entryPerimeter=0;exitX=0.031;exitY=1.01;exitDx=0;exitDy=0;exitPerimeter=0;elbow=vertical;" edge="1" parent="1">
          <mxGeometry width="50" height="50" relative="1" as="geometry">
            <mxPoint x="360" y="1150" as="sourcePoint" />
            <mxPoint x="360" y="1110" as="targetPoint" />
          </mxGeometry>
        </mxCell>
        <mxCell id="ZrcRCkvmEoTp-0TvFuuc-93" value="D" style="text;html=1;align=center;verticalAlign=middle;resizable=0;points=[];autosize=1;strokeColor=none;fillColor=none;" vertex="1" parent="1">
          <mxGeometry x="325" y="1115" width="30" height="30" as="geometry" />
        </mxCell>
        <mxCell id="ZrcRCkvmEoTp-0TvFuuc-94" value="" style="endArrow=none;html=1;rounded=0;entryX=0.031;entryY=0;entryDx=0;entryDy=0;entryPerimeter=0;exitX=0.031;exitY=1.01;exitDx=0;exitDy=0;exitPerimeter=0;elbow=vertical;" edge="1" parent="1">
          <mxGeometry width="50" height="50" relative="1" as="geometry">
            <mxPoint x="400" y="1150" as="sourcePoint" />
            <mxPoint x="400" y="1110" as="targetPoint" />
          </mxGeometry>
        </mxCell>
        <mxCell id="ZrcRCkvmEoTp-0TvFuuc-95" value="" style="endArrow=none;html=1;rounded=0;entryX=0.031;entryY=0;entryDx=0;entryDy=0;entryPerimeter=0;exitX=0.031;exitY=1.01;exitDx=0;exitDy=0;exitPerimeter=0;elbow=vertical;" edge="1" parent="1">
          <mxGeometry width="50" height="50" relative="1" as="geometry">
            <mxPoint x="479.5" y="1150" as="sourcePoint" />
            <mxPoint x="479.5" y="1110" as="targetPoint" />
          </mxGeometry>
        </mxCell>
        <mxCell id="ZrcRCkvmEoTp-0TvFuuc-96" value="E" style="text;html=1;align=center;verticalAlign=middle;resizable=0;points=[];autosize=1;strokeColor=none;fillColor=none;" vertex="1" parent="1">
          <mxGeometry x="425" y="1115" width="30" height="30" as="geometry" />
        </mxCell>
        <mxCell id="ZrcRCkvmEoTp-0TvFuuc-97" value="F" style="text;html=1;align=center;verticalAlign=middle;resizable=0;points=[];autosize=1;strokeColor=none;fillColor=none;" vertex="1" parent="1">
          <mxGeometry x="365" y="1115" width="30" height="30" as="geometry" />
        </mxCell>
        <mxCell id="ZrcRCkvmEoTp-0TvFuuc-98" value="G" style="text;html=1;align=center;verticalAlign=middle;resizable=0;points=[];autosize=1;strokeColor=none;fillColor=none;" vertex="1" parent="1">
          <mxGeometry x="185" y="1115" width="30" height="30" as="geometry" />
        </mxCell>
        <mxCell id="ZrcRCkvmEoTp-0TvFuuc-104" style="edgeStyle=orthogonalEdgeStyle;rounded=0;orthogonalLoop=1;jettySize=auto;html=1;exitX=0.5;exitY=1;exitDx=0;exitDy=0;" edge="1" parent="1">
          <mxGeometry relative="1" as="geometry">
            <mxPoint x="480" y="910" as="targetPoint" />
            <mxPoint x="479.5" y="835" as="sourcePoint" />
          </mxGeometry>
        </mxCell>
        <mxCell id="ZrcRCkvmEoTp-0TvFuuc-107" value="A申请" style="text;html=1;align=center;verticalAlign=middle;resizable=0;points=[];autosize=1;strokeColor=none;fillColor=none;" vertex="1" parent="1">
          <mxGeometry x="480" y="128" width="60" height="30" as="geometry" />
        </mxCell>
        <mxCell id="ZrcRCkvmEoTp-0TvFuuc-108" value="B申请" style="text;html=1;align=center;verticalAlign=middle;resizable=0;points=[];autosize=1;strokeColor=none;fillColor=none;" vertex="1" parent="1">
          <mxGeometry x="480" y="260" width="60" height="30" as="geometry" />
        </mxCell>
        <mxCell id="ZrcRCkvmEoTp-0TvFuuc-109" value="C申请、D申请" style="text;html=1;align=center;verticalAlign=middle;resizable=0;points=[];autosize=1;strokeColor=none;fillColor=none;" vertex="1" parent="1">
          <mxGeometry x="480" y="380" width="100" height="30" as="geometry" />
        </mxCell>
        <mxCell id="ZrcRCkvmEoTp-0TvFuuc-110" value="C释放" style="text;html=1;align=center;verticalAlign=middle;resizable=0;points=[];autosize=1;strokeColor=none;fillColor=none;" vertex="1" parent="1">
          <mxGeometry x="490" y="508" width="60" height="30" as="geometry" />
        </mxCell>
        <mxCell id="ZrcRCkvmEoTp-0TvFuuc-111" value="E申请" style="text;html=1;align=center;verticalAlign=middle;resizable=0;points=[];autosize=1;strokeColor=none;fillColor=none;" vertex="1" parent="1">
          <mxGeometry x="490" y="628" width="60" height="30" as="geometry" />
        </mxCell>
        <mxCell id="ZrcRCkvmEoTp-0TvFuuc-112" value="A释放" style="text;html=1;align=center;verticalAlign=middle;resizable=0;points=[];autosize=1;strokeColor=none;fillColor=none;" vertex="1" parent="1">
          <mxGeometry x="490" y="738" width="60" height="30" as="geometry" />
        </mxCell>
        <mxCell id="ZrcRCkvmEoTp-0TvFuuc-113" value="F申请" style="text;html=1;align=center;verticalAlign=middle;resizable=0;points=[];autosize=1;strokeColor=none;fillColor=none;" vertex="1" parent="1">
          <mxGeometry x="495" y="858" width="50" height="30" as="geometry" />
        </mxCell>
        <mxCell id="ZrcRCkvmEoTp-0TvFuuc-114" value="G申请" style="text;html=1;align=center;verticalAlign=middle;resizable=0;points=[];autosize=1;strokeColor=none;fillColor=none;" vertex="1" parent="1">
          <mxGeometry x="490" y="970" width="60" height="30" as="geometry" />
        </mxCell>
        <mxCell id="ZrcRCkvmEoTp-0TvFuuc-115" value="B释放" style="text;html=1;align=center;verticalAlign=middle;resizable=0;points=[];autosize=1;strokeColor=none;fillColor=none;" vertex="1" parent="1">
          <mxGeometry x="490" y="1068" width="60" height="30" as="geometry" />
        </mxCell>
      </root>
    </mxGraphModel>
  </diagram>
</mxfile>
